<svg id="Layer_1" data-name="Layer 1" xmlns="http://www.w3.org/2000/svg" viewBox="0 0 800 386.36"><defs><style>.cls-1,.cls-5{fill:#1d1d1b;}.cls-2{font-size:134.07px;font-family:BebasNeue-Regular, Bebas Neue;}.cls-2,.cls-6{fill:#fff;}.cls-3{letter-spacing:0.09em;}.cls-4{letter-spacing:0.09em;}.cls-5{font-size:166.75px;}.cls-5,.cls-6{font-family:MADETOMMY-Thin, MADE TOMMY;font-weight:200;}.cls-6{font-size:75.18px;letter-spacing:0.23em;}.cls-7{letter-spacing:0.21em;}</style></defs><path class="cls-1" d="M223.53,176.54a148.1,148.1,0,0,1,8.41-15.33l.68.53c.26.2.78-.15,1.17-.78a119.67,119.67,0,0,1,15.88-20.08c.53-.53.82-1.13.64-1.35l-3.37-4.05c-.17-.21-.83,0-1.48.45a153.62,153.62,0,0,0-20.57,18c-.56.58-.79,1.21-.54,1.4l.69.53Q218.7,162.6,213,170c-.48.63-.63,1.29-.33,1.47l.8.49c-3.72,4.91-7.24,10-10.61,15.19-.43.67-.5,1.35-.15,1.51l.91.45q-4.92,7.8-9.39,15.93c-.38.69-.38,1.38,0,1.53l1,.41q-4.37,8.1-8.36,16.46c-.34.71-.28,1.4.14,1.54l1.12.37q-3.9,8.32-7.49,16.85c-.31.72-.19,1.41.26,1.53l1.22.33q-3.51,8.5-6.76,17.15c-.27.74-.1,1.43.39,1.53l1.3.29q-3.17,8.63-6.11,17.39c-.25.74,0,1.43.49,1.52l1.39.25q-2.87,8.73-5.54,17.58c-.23.75,0,1.42.58,1.5l1.49.21q-2.61,8.82-5,17.75c-.2.75.1,1.42.69,1.48l1.56.17q-2.35,8.89-4.55,17.89c-.19.77.16,1.43.77,1.47l1.65.12q-2.12,9-4.08,18c-.17.78.22,1.42.87,1.45l1.73.06q-1.87,9.06-3.57,18.24c-.14.78.29,1.42,1,1.42h22a1,1,0,0,0,1-1.35c-1.08-5.82-2-11.72-2.8-17.64l1.73.07c.65,0,1.08-.57,1-1.32q-1.23-8.83-2.06-17.77l1.65.12c.62,0,1.05-.54,1-1.3q-.87-8.88-1.35-17.84l1.57.17c.59.06,1-.51,1-1.27q-.51-8.91-.62-17.86l1.48.21c.55.07,1-.48,1-1.24q-.13-8.93.15-17.85l1.39.25c.53.09,1-.45,1-1.21q.25-8.89,1-17.79l1.31.29c.48.11.92-.42,1-1.17q.67-8.85,1.85-17.69l1.22.33c.45.13.89-.38,1-1.13q1.15-8.79,2.85-17.51l1.12.37c.42.14.86-.35,1-1.09q1.68-8.67,4-17.23l1,.41c.38.15.84-.31,1-1,1.52-5.67,3.26-11.29,5.25-16.82l.92.45c.34.16.82-.27,1.07-1a173.58,173.58,0,0,1,6.72-16.22l.81.49C222.72,177.6,223.22,177.21,223.53,176.54Z"/><path class="cls-1" d="M125.78,169.58c-.33-6.21-.52-12.46-.69-18.73l.86.06c.32,0,.56-.61.53-1.42-.31-9.24-.59-18.55-1.27-27.84-.06-.81-.34-1.46-.61-1.46h-5.27c-.28,0-.55.63-.62,1.42-.78,9.06-2.1,18.09-3.56,27.17-.13.78,0,1.44.34,1.46l.87.06-3,18.63c-.13.8.06,1.46.41,1.48l.94,0c-.93,6.25-1.8,12.55-2.53,18.91-.09.81.15,1.47.53,1.47h1c-.67,6.34-1.18,12.74-1.49,19.19,0,.83.27,1.47.68,1.44l1.09-.07c-.23,6.41-.26,12.87,0,19.37,0,.83.4,1.45.84,1.38L116,232q.43,9.66,1.6,19.39c.1.82.55,1.4,1,1.28l1.22-.31q1.25,9.62,3.22,19.21c.16.82.68,1.35,1.15,1.18l1.26-.44c1.36,6.32,2.94,12.63,4.7,18.9.23.8.81,1.28,1.29,1.07l1.3-.58q1.35,4.65,2.85,9.28l3,9.12c.25.77.86,1.18,1.36.93l1.33-.68c2,5.95,3.83,11.77,5.2,17.54.18.73.75,1.15,1.29.92l1.46-.6a114.14,114.14,0,0,1,2.78,17.44c.06.74.58,1.22,1.18,1.07l1.6-.4A122.9,122.9,0,0,1,154.9,364c-.05.75.42,1.31,1.06,1.24l1.73-.18a162.32,162.32,0,0,1-2.23,17.83,1.06,1.06,0,0,0,1,1.37h22c.68,0,1.11-.69,1-1.53-1.14-6.56-2.52-13.09-4.23-19.52l1.73-.19c.64-.06,1-.79.75-1.63a172.33,172.33,0,0,0-6.53-19.13l1.61-.4c.59-.14.81-.92.46-1.72a155.05,155.05,0,0,0-9.14-18l1.46-.6c.54-.22.62-1,.18-1.74-3.48-5.73-7.19-11.1-10.82-16.28l1.34-.68c.49-.25.52-1,.05-1.65-1.83-2.58-3.63-5.11-5.34-7.62s-3.4-5.09-5-7.69l1.29-.58c.49-.21.54-.92.13-1.58-3.23-5.15-6.26-10.46-9-15.9l1.27-.45c.47-.16.55-.85.2-1.54q-4.14-8.1-7.54-16.63l1.22-.31c.46-.12.59-.79.3-1.51-2.24-5.63-4.21-11.4-5.9-17.27l1.17-.19c.43-.07.61-.73.39-1.48-1.67-5.83-3.07-11.78-4.2-17.81l1.1-.07c.41,0,.62-.68.47-1.44-1.13-6-2-12.08-2.63-18.22h1c.38,0,.62-.63.54-1.41-.66-6.11-1.09-12.29-1.39-18.51l.94,0C125.57,171,125.82,170.37,125.78,169.58Z"/><path class="cls-1" d="M209.31,83.58c.39.16.29-1.5.13-3.16s-.4-3.33,0-3.16a53.15,53.15,0,0,1,12.25,6.24,13.45,13.45,0,0,1,3.17,3.79,23.14,23.14,0,0,1,1.32,2.51l.6,1.31c.21.45.41.89.59,1.33,1.48,3.53,2,6.47,2.21,6.09,1.38-2.07,1.08-4.8.43-6.83s-1.48-3.3-.68-2.66a46.31,46.31,0,0,1,7.27,7.37,44.6,44.6,0,0,1,4.88,7.66,18,18,0,0,1,.46,5.64,48.08,48.08,0,0,0-.13,5.35c.22.76.9-.15,1.55-1.11s1.27-2,1.48-1.22a63.44,63.44,0,0,1,2.07,11.1c.3,3.1.38,5.62.39,7.64a52.87,52.87,0,0,1-.23,6s-2.71-2.1-7.1-7.79c-2.21-2.8-4.81-6.52-8-10.55a65.43,65.43,0,0,0-5.36-6,43.23,43.23,0,0,0-6.79-5.46c-.52-.32,2.21-.52,5.09-.18s5.86,1.17,5.34.61a12.07,12.07,0,0,0-3-1.54,31.44,31.44,0,0,0-5.64-1.59c-1-.19-2-.33-3-.43s-1.88-.2-2.77-.34a19.85,19.85,0,0,1-3.24-.53c-1.69-.85-3.37-1.66-5.06-2.4-.7-.3,2.46-.9,5.82-1.15,1.67-.13,3.37-.2,4.58-.27s1.91-.16,1.55-.4-5.07-1-9.52-1.08-8.64.4-9,.26l-1.52-.53c-2.36-.8-4.63-1.46-6.82-2-.75-.18,1.54-1.54,4.12-2.66s5.38-2,4.61-2.34-4.88.08-8.73,1.06-7.32,2.44-7.87,2.37a77.4,77.4,0,0,0-9.76-.84c-.67,0,0-1.21.9-2.38S177.7,89,177,88.91s-2.73,1-4.71,2.25-3.8,2.61-4.29,2.63c-2.26.13-4.36.31-6.29.52-.61.07.27-1.37,1.29-2.79s2.16-2.81,1.6-2.81c-.91,0-3.49,1.45-5.82,3.1s-4.44,3.45-5.11,3.55c-3.85.59-6,.83-6,.81a25.89,25.89,0,0,1,3.05-5.26c.3-.41,3.16-1.59,6.11-2.49s6-1.54,6.42-1.94c.31-.26-2-.33-4.25-.23s-4.62.36-4.29,0a42.66,42.66,0,0,1,8-6.23c.54-.34,4.47-.29,8.22.26s7.3,1.49,7.9,1.32-1.61-1.59-4.09-2.79-5.11-2.21-4.36-2.5c1.09-.42,2.24-.79,3.43-1.15.66-.21,5.36.76,9.39,2.28s7.49,3.32,7.29,2.82c-.79-2-3.21-3.76-5.41-4.91s-4.07-1.72-3.43-1.81a55.13,55.13,0,0,1,18.64.92c1.09.24,3,2.27,4.74,4.38S208.33,83.18,209.31,83.58Z"/><path class="cls-1" d="M309.44,145.48c-.36-.19-.39,1.46-.49,3.09s-.21,3.25-.55,3.06a98.34,98.34,0,0,0-9.55-4.35,6.88,6.88,0,0,1-1.42-.88c-.42-.36-.95-.81-1.59-1.31-1.26-1-2.66-2.14-4-3.17-2.73-2.07-5.28-3.67-5.17-3.23.57,2.42,2.42,4.16,3.77,5.39s2.33,1.86,1.59,1.76a89,89,0,0,0-15.53-.24,30,30,0,0,1-5.18-1.52,26.37,26.37,0,0,0-5.28-1.42c-1.68.13,3.19,3.38,1.64,3.46a120.06,120.06,0,0,1-12.1.17,54,54,0,0,1-8.58-1,27.59,27.59,0,0,1-6.41-2s.81-.43,2.51-1.21,4.23-1.95,7.66-3.6,7.77-3.79,13.53-6.31c2.89-1.25,6.17-2.58,10-3.82a71.38,71.38,0,0,1,13.34-3c1-.11-2.34,1.84-5.23,4.06s-5.5,4.57-4.62,4.34,5.34-3,10.56-5.21a51.45,51.45,0,0,1,7.67-2.56c1.15-.28,2.18-.47,3-.6a7.87,7.87,0,0,1,1.8-.1,48,48,0,0,1,8.9,2c1.17.4-3.43.63-7.76,1.69l-1.6.41c-.56.14-1.05.3-1.53.46-.93.33-1.74.66-2.4,1-1.3.59-2,1-1.44,1.06.32,0,1.78-.38,4-.8a49.12,49.12,0,0,1,8.32-.72,63.23,63.23,0,0,1,8.35.56,24.19,24.19,0,0,1,4.16.76c.71.38,1.4.76,2.08,1.15,3.16,1.8,5.92,3.59,8.4,5.24.86.57-2.32.67-5.65.68s-6.73.09-5.86.66c.7.43,5.64,1.51,10.31,2.46,2.34.46,4.61.84,6.33,1.09.84.12,1.65.26,2.22.37a4.31,4.31,0,0,1,1.06.27,108.09,108.09,0,0,0,9.89,5.63c.7.35-.64,1-2.06,1.67s-2.91,1.19-2.25,1.58,3.24.44,5.88.33,5.22-.4,5.75-.17c2.38,1,4.63,1.94,6.69,2.77.64.25-1.06,1-2.85,1.73s-3.65,1.34-3.09,1.62c.9.47,4.2.5,7.4.31s6.34-.52,7-.23a62.05,62.05,0,0,1,6,2.77,38.38,38.38,0,0,1-6,2.55c-.51.18-3.81-.42-7.09-1.19s-6.52-1.71-7.19-1.6c-.44.07,1.72,1.26,4,2.35s4.5,2.09,4,2.19A59.68,59.68,0,0,1,354,167.19c-.67,0-4.36-1.92-7.76-4.2s-6.48-4.81-7.16-5,.9,2.19,2.76,4.43,3.91,4.39,3.07,4.29q-1.87-.22-3.84-.6c-.73-.12-4.81-3.19-8.11-6.43-.83-.81-1.63-1.61-2.35-2.36l-1.87-2c-1.08-1.13-1.75-1.78-1.75-1.51a8.25,8.25,0,0,0,1,3.49c.33.61.64,1.17,1,1.74a20.25,20.25,0,0,0,1.19,1.64c1.64,2.05,3.2,3.43,2.55,3.21-1.43-.49-2.89-1-4.36-1.66l-2.11-.92c-.73-.33-1.46-.67-2.18-1-2.89-1.4-5.69-3-8.42-4.54-.9-.51-2-2.9-3.08-5.24S310.36,145.93,309.44,145.48Z"/><path class="cls-1" d="M289.45,110.38c-.28.13.85,1.24,2,2.36s2.2,2.25,1.92,2.38c-2.77,1.23-5.45,2.74-8.33,3.77-1.73.61-5.09.06-8.05-.41s-5.49-.9-5.18-.56a10.77,10.77,0,0,0,5.43,3c1.59.4,2.63.45,2.07.72-4,2-7.58,3.88-10.76,5.63a21.47,21.47,0,0,1-4.25.33,15,15,0,0,0-4.28.55c-.51.34.51.73,1.51,1.14s2,.82,1.55,1.09c-5.47,3.21-9.55,5.88-12.37,7.7s-4.35,2.73-4.36,2.72a14.65,14.65,0,0,1,0-2.26,29.09,29.09,0,0,1,1.23-6.93,44.9,44.9,0,0,1,5.3-11.34,63.3,63.3,0,0,1,12.4-14c.56-.48-.41,2.4-1.18,5.28s-1.35,5.74-.86,5.25,2.15-4.35,4.19-8.12,4.36-7.47,5-7.9q2.44-1.66,5-3.15c.7-.41-.87,2.55-2.23,5.54s-2.56,6-1.92,5.6c.36-.25,2.57-3.92,5.12-7.48s5.34-7,5.77-7.23l1.62-.74,1-.44.87-.35,1.73-.69c1.16-.45,2.32-.88,3.47-1.27.79-.28-.62,2.15-1.91,4.58-.65,1.21-1.28,2.43-1.65,3.31s-.58,1.46-.2,1.33a10.86,10.86,0,0,0,2.16-2l3.74-3.94c2.71-2.85,5.71-5.61,6.34-5.74a60.57,60.57,0,0,1,10.85-1.46c.76,0-.08,1.21-.84,2.46s-1.5,2.51-.85,2.5,2.46-1.3,4.55-2.47,4.35-2.22,4.9-2.14a32.42,32.42,0,0,1,6.72,1.63c.61.22-1,1-2.42,2s-2.73,2-2.25,2.14c.78.25,3.3-.35,6-.51a19.65,19.65,0,0,1,3.81.11,4.92,4.92,0,0,1,2.17.67,11.26,11.26,0,0,1,2.49,3.52,7.7,7.7,0,0,1,.46,1.32,18.74,18.74,0,0,0-4.82.15,5.52,5.52,0,0,1-1.45-.65,23.21,23.21,0,0,0-2.89-1.23c-2.22-.76-4.72-1.11-5.17-.87-.29.16,1.46.88,3,1.77s2.75,1.94,2.45,2c-1.79.62-3.79,1.45-6.1,2.51-.35.16-2.78-.87-5.56-1.59s-5.7-1.24-6.12-1,1.61,1.27,3.53,2.38,3.69,2.32,3.24,2.54l-2.08,1c-.38.19-3.54-.64-6.74-1.15s-6.32-.84-6-.47a13.05,13.05,0,0,0,5.4,2.87c1.77.56,3.07.85,2.71,1-3.28,1.6-6.91,3.38-11.1,5.29a3.45,3.45,0,0,1-1.89-.18c-.44-.11-.92-.26-1.43-.42s-1.08-.32-1.54-.53a18.71,18.71,0,0,0-2.87-.93A3.55,3.55,0,0,0,289.45,110.38Z"/><path class="cls-1" d="M190.5,134.38c.66-.35-5-4.06-4.38-4.4a54.79,54.79,0,0,1,10.75-4.78c2.41-.7,6.65.12,9.93,1.37s5.63,2.76,5.5,2.31a8.07,8.07,0,0,0-4.55-4.77c-1.77-.85-3.16-1.07-2.25-1.24a43.82,43.82,0,0,1,9.28-.71,41.4,41.4,0,0,1,4.27.36,35.21,35.21,0,0,1,3.74.72,18.89,18.89,0,0,1,4,3,30.29,30.29,0,0,0,3.72,3.12c.66.25.36-.83,0-1.9s-.75-2.14-.11-1.9a41.93,41.93,0,0,1,9.49,4.81,21.76,21.76,0,0,1,5.55,5.34,11.06,11.06,0,0,1,1.83,4.08,7.55,7.55,0,0,1,.14,1.41,19,19,0,0,0-2.06-.9,20.62,20.62,0,0,0-6.16-1,90.85,90.85,0,0,0-10.91.48c-2.29.21-4.77.48-7.64.77a40,40,0,0,0-7.33,1.7c-.5.18.83-2,2.64-4s4-3.76,3.36-3.71a9.4,9.4,0,0,0-2.72,1.34,28.9,28.9,0,0,0-4.18,3.26c-2.73,2.52-4.83,5.44-5.39,5.71-1.4.68-2.82,1.43-4.28,2.23-.6.34.65-2.42,2.12-5.07s3.28-5.21,2.6-5a12.67,12.67,0,0,0-2.09,2c-1.06,1.17-2.32,2.76-3.52,4.39-2.39,3.26-4.68,6.77-5.08,7l-1.44.8c-2.26,1.24-4.56,2.46-6.86,3.57-.79.38.42-2.24,1.52-4.85s2.19-5.2,1.47-4.88-3,3.47-5.52,6.7-4.91,6.32-5.46,6.55c-3.43,1.39-6.53,2.52-9.35,3.53-.63.22-.38-1.14-.09-2.53s.65-2.78,0-2.6-2,1.9-3.29,3.66-2.53,3.53-3,3.68L159.35,166c-.52.19-.18-1.34.28-2.88s1-3.11.53-3c-.79.22-2.61,2.13-4.17,4.14s-2.89,4-3.44,4.26c-3.25,1.27-5.08,2-5.1,2a19.86,19.86,0,0,1,1.08-5.45c.13-.46,2.36-2.14,4.71-3.55s4.77-2.67,5.06-3.15c.17-.31-1.81.12-3.81.69s-4,1.26-3.79.89a43.13,43.13,0,0,1,5-7.45c.35-.43,3.66-1.23,6.91-1.75s6.46-.88,6.86-1.26-2-.83-4.38-1.18-4.9-.6-4.42-1.05c.71-.66,1.45-1.33,2.22-2,.43-.38,4.36-.85,7.95-1.11s6.94-.46,6.53-.78c-1.63-1.24-4.17-1.64-6.23-1.78s-3.64,0-3.24-.29c3.59-2.64,7.6-5.16,11.81-7.66C181.11,132.76,188.9,135.21,190.5,134.38Z"/><path class="cls-1" d="M264.32,174.76c-.06-.24-1.41.52-2.78,1.22s-2.74,1.36-2.78,1.15c-.4-2.08-1.12-4.13-1.37-6.34-.14-1.32,1.18-3.91,2.27-6.31s2-4.51,1.65-4.25a12.75,12.75,0,0,0-4,4.41c-.74,1.28-1,2.09-1.15,1.64-.92-3.19-1.88-6.13-2.8-8.81a18.45,18.45,0,0,1,.59-3.64,12.19,12.19,0,0,0,.4-3.73c-.19-.45-.76.45-1.34,1.33s-1.16,1.77-1.3,1.36c-1.73-4.76-3.17-8.53-4.09-11.17s-1.34-4.12-1.33-4.12a10.79,10.79,0,0,1,1.93.05,23.81,23.81,0,0,1,5.71,1.34,35.06,35.06,0,0,1,9,4.9A45.77,45.77,0,0,1,273.61,155c.34.51-2.21-.49-4.77-1.23s-5.09-1.29-4.74-.86,3.62,1.91,6.8,3.84,6.26,4.26,6.54,4.86q1.11,2.28,2,4.66c.24.66-2.27-1.09-4.86-2.51s-5.2-2.59-4.94-2c.16.33,3.2,2.39,6.06,5s5.55,5.57,5.63,6,.21,1,.31,1.51a44.07,44.07,0,0,1,.72,6.89c0,.78-1.84-1.13-3.82-2.77s-4-3.1-4-2.46,2.17,3.15,4,6.2,3.36,6.42,3.25,7a37,37,0,0,1-2.78,9.13c-.27.58-1.07-.53-1.92-1.58s-1.73-2.07-2-1.57.24,2.32.51,4.32.4,4,.14,4.41a28.5,28.5,0,0,1-3.61,4.11c-.38.35-.72-1.09-1.15-2.48s-.92-2.74-1.23-2.46c-.49.46-.81,2.51-1.32,4.53s-1.14,4-1.61,4.24a16.12,16.12,0,0,1-4.33,1.66s-.16-1.62-.26-4.35c0-.35,1.36-1.64,2.64-3.13s2.46-3.11,2.38-3.54c0-.27-1.3.69-2.58,1.51s-2.6,1.52-2.61,1.24c-.08-1.73-.19-3.66-.35-5.76,0-.32,1.79-1.62,3.48-3.25s3.27-3.49,3.19-3.89-1.78.72-3.52,1.62-3.49,1.61-3.53,1.23l-.18-1.72c0-.32,1.9-2.05,3.53-4.06s3-4.17,2.52-4a14.59,14.59,0,0,0-4.56,2.94c-1.16,1-1.89,1.74-1.93,1.45-.32-2.54-.72-5.26-1.22-8.25-.08-.48,1.24-1.72,2.49-3.12S264.46,175.34,264.32,174.76Z"/><path class="cls-1" d="M52.21,98c.47-.12-.71-1.35-1.94-2.55s-2.49-2.37-2-2.51a66.3,66.3,0,0,1,15.08-2.88,16.11,16.11,0,0,1,5.4,1c1,.32,2,.7,2.95,1.11s2,.86,2.87,1.32c3.65,1.82,6.22,3.76,6.15,3.3-.34-2.47-2.5-4.37-4.4-5.53S72.88,89.58,74,89.58a63.21,63.21,0,0,1,20.67,3.53c.82.29,3,2.1,4.86,4s3.55,4,4.18,4.38c.78.49.63-.68.4-1.88s-.53-2.4.25-1.92a44.53,44.53,0,0,1,10.41,8.77,38.72,38.72,0,0,1,5.17,7.57,31.38,31.38,0,0,1,2,4.84c.35,1.09.45,1.64.46,1.64s-.86-.41-2.55-1.32-4.23-2.29-7.69-3.85a63.78,63.78,0,0,0-33.28-5.34c-.78.08,1.78-1.81,4.65-3.42s6-2.93,5.13-3a15.85,15.85,0,0,0-3.82.8,51.28,51.28,0,0,0-6.41,2.43c-1.11.49-2.19,1-3.2,1.54l-2.8,1.48a26.88,26.88,0,0,1-3.4,1.65c-2.19.42-4.37.87-6.5,1.39-.87.21,1.74-2.3,4.7-4.62s6.15-4.52,5.17-4.42c-.57,0-5.33,2.43-9.58,5.23s-8,5.9-8.48,6.06l-1.83.59q-4.26,1.41-8,3c-.86.37.58-2.27,2.37-4.85s3.85-5.1,2.9-4.86c-.79.2-4.57,3.23-7.72,6.59s-5.77,6.92-6.38,7.24c-3.77,2-7.17,4-10.25,6-.68.45-.55-1.09-.33-2.66s.52-3.18-.18-2.8-2.12,2.67-3.43,5.07-2.46,4.84-2.93,5.19c-2.16,1.6-4.13,3.12-5.91,4.53-.55.45-.34-1.45,0-3.39s.77-3.91.23-3.56c-.87.57-2.65,3.48-4.14,6.43S6,143.59,5.36,144.08C1.92,146.9,0,148.3,0,148.28a34.08,34.08,0,0,1,.68-6.75c.1-.56,2.28-3.29,4.66-5.85s4.91-5,5.17-5.63c.16-.42-2,.9-4.13,2.35s-4.17,3-4,2.53A58.52,58.52,0,0,1,6.9,124.64c.33-.62,4-2.9,7.74-4.75s7.62-3.31,8.09-3.84-2.38-.29-5.32.23-5.86,1.23-5.33.54c.78-1,1.63-2,2.53-3.06.5-.58,5.29-2.64,9.87-3.94s8.86-2.08,8.37-2.36c-1.91-1.08-5.18-1-7.84-.54s-4.68,1.12-4.14.65a69.65,69.65,0,0,1,17.43-11c1.12-.5,4.13-.12,7,.46S51.06,98.33,52.21,98Z"/><path class="cls-1" d="M59.79,147.74c.35-.28-1.17-1-2.73-1.61s-3.17-1.2-2.8-1.52A68.93,68.93,0,0,1,60,140.18c1-.67,2-1.31,2.95-1.83s2-1.08,3-1.55c2.47-1.14,6.87-1.06,10.43-.62s6.4,1.1,6.14.71c-1.39-2-3.83-2.93-5.75-3.34s-3.31-.34-2.47-.7a131.77,131.77,0,0,1,15.87-5.4c1.31-.36,9,1.39,10.22,1,1.48-.39-3.58-2.78-2.22-3.1,8-1.87,13.76-3,17.71-3.79s6-1.06,6-1a17.39,17.39,0,0,1-1.32,2.27,43.14,43.14,0,0,1-5.22,6.35,81.9,81.9,0,0,1-11,9.26c-4.76,3.43-10.68,7.05-17.26,11.09-.66.4.8-2.37,2.39-5.14s3.26-5.55,2.55-5.16-3.88,4-6.75,7.6-5.39,7.27-6,7.71l-2.43,1.66-2.39,1.72c-.3.22-.22-.4.23-1.54s1.06-2.65,1.81-4.21c1.48-3.1,3.26-6.19,2.49-5.77a51,51,0,0,0-5.8,7.94,82.73,82.73,0,0,0-4.1,7.92c-.39.34-.76.69-1.13,1a60.42,60.42,0,0,0-4.72,5c-.47.58-.75-2-.6-4.82s.66-5.66,0-5.13-2.17,4.35-2.93,8.22-.9,7.63-1.22,8.11a92.34,92.34,0,0,0-5,8.81c-.31.64-1-.6-1.73-1.91s-1.3-2.68-1.66-2.08-.3,3-.1,5.39.53,4.81.32,5.29c-1,2.18-1.87,4.23-2.69,6.11-.25.58-1-1-1.75-2.63s-1.39-3.36-1.66-2.85c-.44.82-.44,3.84-.24,6.77s.52,5.79.23,6.42a61.53,61.53,0,0,1-2.79,5.5,33.35,33.35,0,0,1-2.54-5.55c-.18-.48.43-3.49,1.2-6.48s1.66-6,1.55-6.56c-.09-.4-1.24,1.56-2.31,3.59s-2.07,4.1-2.18,3.65a55.74,55.74,0,0,1-1.42-9.84c0-.61,1.83-4,4-7.07s4.52-5.95,4.63-6.57-2.13.81-4.28,2.52-4.22,3.57-4.15,2.79c.12-1.14.26-2.32.46-3.53.1-.68,3-4.47,6.06-7.54s6.24-5.5,5.7-5.53c-2.14-.12-4.81,1.38-6.79,2.93s-3.3,3-3.11,2.38a52.31,52.31,0,0,1,9.13-16.89c.72-.91,3.5-1.81,6.24-2.41S58.94,148.42,59.79,147.74Z"/><path class="cls-1" d="M148.62,138c-.11-.15-1.12,1-2.15,2.11s-2.07,2.2-2.17,2.06a25.15,25.15,0,0,1-2.66-4c-.38-.9.3-3.37.79-5.66s.83-4.33.57-4a18.37,18.37,0,0,0-2.46,5.16c-.41,1.29-.52,2-.7,1.74-1.25-1.87-2.34-3.47-3.36-4.87a29.43,29.43,0,0,1-.23-3,8.3,8.3,0,0,0-.67-3c-.26-.23-.34.8-.47,1.82s-.31,2-.47,1.81a23.88,23.88,0,0,0-3-3.13,23,23,0,0,0-3-2.16c-1.86-1.11-3.08-1.7-3.06-1.72a8.31,8.31,0,0,1,.85-1.42,11.76,11.76,0,0,1,3.85-3.28,17,17,0,0,1,9.07-1.9,27,27,0,0,1,12.84,4.27c.43.28-2.05.55-4.41,1.1s-4.58,1.35-4.17,1.53,3.48-.19,6.7,0,6.47.71,6.86,1.05c1,.87,1.94,1.78,2.83,2.72.37.39-2.26.16-4.85.18s-5.1.23-4.75.55,3.29.49,6.41,1.19a30.64,30.64,0,0,1,6.39,1.9l.65.92a36.88,36.88,0,0,1,2.56,4.28c.24.48-2,.15-4.19-.06s-4.41-.32-4.19.11,2.75,1.25,5.31,2.36,5.09,2.38,5.21,2.76a33.2,33.2,0,0,1,1.43,6.54c.05.45-1.14.3-2.33.17s-2.4-.25-2.37.16,1.26,1.19,2.48,2.11,2.42,1.87,2.4,2.19a26.85,26.85,0,0,1-.44,4.06c-.07.38-1.22-.1-2.37-.54s-2.3-.87-2.38-.55c-.12.53.82,1.78,1.71,3.06s1.76,2.58,1.59,3a15.23,15.23,0,0,1-1.89,3.41,30.8,30.8,0,0,1-3.21-1.87c-.25-.16-.15-1.64-.14-3.17s-.05-3.08-.35-3.27-.61,1.13-1.08,2.34-1,2.38-1.17,2.24c-1.18-.85-2.47-1.85-3.83-3-.22-.18.42-2.05,1-4s1-3.94.76-4.15-1.19,1.38-2.19,2.9-2,3-2.27,2.76l-1.06-1.05c-.19-.19.52-2.42,1.07-4.61s.94-4.3.59-4c-2.75,2.66-3.47,6.65-3.81,6.28-1.45-1.63-2.91-3.44-4.35-5.42-.24-.32.54-1.83,1.25-3.4S148.89,138.33,148.62,138Z"/><path class="cls-1" d="M157.11,92.33c-.22.16,1,1.08,2.29,2s2.47,1.88,2.26,2a70.1,70.1,0,0,1-6.47,4.48c-1.4.77-4.54.6-7.32.45s-5.15-.32-4.79,0c3.84,3,8.5,2.11,7.61,2.76l-2.3,1.64-1.09.79-.91.62c-1.22.88-2.5,1.93-3.73,2.94a18.87,18.87,0,0,1-3.9.91,16.55,16.55,0,0,0-3.94,1c-.85.73,4.15,1.13,3.34,1.77a61.3,61.3,0,0,1-6.71,4.78,31.2,31.2,0,0,1-5.43,2.63,15,15,0,0,1-4.66,1s.72-2.63,2.12-7.47c.71-2.44,1.56-5.48,3-9.35a60,60,0,0,1,2.85-6.49c.63-1.21,1.34-2.47,2.2-3.8.4-.62,1-1.46,1.48-2.09s1-1.26,1.47-1.9c.2-.24.24.33.23,1.31l-.06,1.72-.14,2.12c-.12,2.88.19,5.52.49,5a15.73,15.73,0,0,0,.67-2.82c.14-.74.39-1.66.62-2.55l.69-2.75c1-3.72,2.22-7.42,2.69-7.89q1.78-1.83,3.69-3.52c.52-.46-.17,2.51-.69,5.47s-.89,5.9-.42,5.45c.27-.27,1.41-3.93,2.84-7.57a45.75,45.75,0,0,1,3.42-7.52l1.24-.88A59.64,59.64,0,0,1,155.53,73c.67-.37-.11,2.15-.75,4.66s-1.17,5-.59,4.69,2.09-3.37,4-6.42,4-6.07,4.49-6.27A51.33,51.33,0,0,1,171.82,67c.64-.11.18,1.19-.23,2.49s-.79,2.61-.23,2.52,1.88-1.53,3.41-2.94,3.16-2.76,3.62-2.76a35.51,35.51,0,0,1,5.73.29c.53.08-.47,1.25-1.39,2.46s-1.77,2.44-1.33,2.5c.71.1,2.68-.93,4.74-1.81s4.2-1.6,4.72-1.37a15.72,15.72,0,0,1,4.25,2.46s-1.32,1.06-3.6,2.82c-.28.22-2.3-.06-4.41-.13s-4.31.05-4.64.37,1.44.59,3,1.08,3,1.07,2.78,1.25l-4.94,3.94c-.29.23-2.67-.35-5.22-.7s-5.18-.53-5.51-.24,1.66,1.07,3.54,1.92,3.68,1.81,3.32,2.08l-1.6,1.26c-.3.22-3.2-.23-6.07-.4s-5.65-.19-5.26.13a12.62,12.62,0,0,0,5.27,2.23c1.64.38,2.81.52,2.53.73-2.48,1.88-5.23,3.91-8.29,6.09-.49.35-2.4-.16-4.37-.59S157.66,91.92,157.11,92.33Z"/><path class="cls-1" d="M76,58.7c.47.17.18-1.52-.18-3.21s-.76-3.39-.25-3.22A66.64,66.64,0,0,1,90.13,58.8c2.74,1.72,5.65,5.94,7.52,9.64s2.88,6.82,3.11,6.41c1.18-2.2.53-5-.34-7.14s-1.84-3.42-.94-2.75A68.64,68.64,0,0,1,114.4,80.33a22.62,22.62,0,0,1,1.7,6.23c.47,2.74.65,5.42,1,6.14.36.88.91-.18,1.41-1.31s.94-2.3,1.31-1.43a43.26,43.26,0,0,1,3.47,13.72,34.62,34.62,0,0,1-.56,9.57,27.66,27.66,0,0,1-1.61,5.21,14.32,14.32,0,0,1-.76,1.58s-.34-.91-1-2.76a65.22,65.22,0,0,0-3.5-8,55.68,55.68,0,0,0-8.26-11.72A75.33,75.33,0,0,0,91.32,84.4c-.71-.42,2.57-.33,5.93.14s6.76,1.32,6.08.72a17.62,17.62,0,0,0-3.67-1.7,58.94,58.94,0,0,0-6.81-2c-4.9-1.19-9.74-1.62-10.53-2q-3-1.44-6.17-2.67c-.86-.33,2.78-.87,6.59-1s7.73.06,6.87-.45c-.5-.32-5.83-1.29-11-1.48s-10.19.18-10.69,0L66,73.39c-3-.88-5.88-1.61-8.66-2.22-1-.2,1.84-1.52,4.88-2.6s6.27-1.94,5.32-2.29c-.79-.3-5.78,0-10.46.92s-9,2.34-9.71,2.26a91.36,91.36,0,0,0-12-.75c-.8,0,.11-1.22,1.17-2.42s2.22-2.37,1.42-2.43-3.31,1-5.69,2.4-4.51,2.86-5.07,2.93a60.11,60.11,0,0,0-7.06,1.24c-.66.17.24-1.46,1.39-3.05s2.5-3.12,1.85-3.06c-1.05.09-4.07,1.87-6.6,4s-4.61,4.58-5.31,4.87c-2,.84-3.59,1.59-4.64,2.09l-1.6.78a15.21,15.21,0,0,1,.42-1.71,25.8,25.8,0,0,1,2.07-4.94c.28-.54,3.37-2.71,6.74-4.23s6.86-2.57,7.42-3c.36-.3-2.28-.14-5,.36s-5.36,1.32-5,.89a39.78,39.78,0,0,1,9.46-7.78,11.3,11.3,0,0,1,3.45-.47,46.64,46.64,0,0,1,6.25.17c4.41.37,8.54,1.36,9.26,1.19S38.49,55,35.63,53.79s-5.92-2.09-5-2.4c1.3-.45,2.65-.87,4.06-1.24a15.55,15.55,0,0,1,4,.45,62.4,62.4,0,0,1,6.89,1.79c4.71,1.48,8.75,3.38,8.51,2.87-1-2-3.81-3.79-6.34-4.95S43,48.57,43.76,48.49a72.15,72.15,0,0,1,21.24,1c1.24.23,3.56,2.28,5.7,4.43S74.82,58.28,76,58.7Z"/><path class="cls-1" d="M24.83,381.29c-8.48,1.37,19.83,7.85,50.51,4.38,40.54-4.58,59.13,1.66,59.13,1.66,119.12.93,157.54,4.44,159-3.33.66-3.42-5.67-9.75-40.13-22.58-39,16-67.4,15.21-86.42,11.36-15-3-44.07-12.47-69.19-9.42C56.43,368.37,65.71,375.71,24.83,381.29Z"/><path class="cls-1" d="M110.16,367.31a38.08,38.08,0,0,0-14-3.56,44.13,44.13,0,0,0-6,.1,19,19,0,0,1,5.73-2.4,23.51,23.51,0,0,1,7.17-.63,24.93,24.93,0,0,1,9,2.32,28,28,0,0,1,11,9.19,25.61,25.61,0,0,1,3.08,5.88,23.21,23.21,0,0,1,1.22,5.05,3.47,3.47,0,0,1-2.23.72,25.42,25.42,0,0,0-3.06-6.52,27,27,0,0,0-4.84-5.53A30.37,30.37,0,0,0,110.16,367.31Z"/><path class="cls-1" d="M119.5,359.85a23.28,23.28,0,0,1,1.13-7.75,22.16,22.16,0,0,1,2.63-5.45,19.58,19.58,0,0,1,3.4-4s-.57,1.86-1.29,4.9a48.19,48.19,0,0,0-1.27,12.2,49.18,49.18,0,0,0,1.46,10.59c.83,3.49,1.87,6.68,2.52,8.82a4.28,4.28,0,0,1-2,1.12,57.86,57.86,0,0,1-3-5.83A38.47,38.47,0,0,1,119.5,359.85Z"/><path class="cls-1" d="M108.87,358.81a49.52,49.52,0,0,0-7.05-5.19,29,29,0,0,0-6.22-2.8,26.17,26.17,0,0,0-4.51-.94c-1.09-.12-1.7-.15-1.69-.15a10.69,10.69,0,0,1,1.63-.56,17,17,0,0,1,4.91-.62,21.25,21.25,0,0,1,7.57,1.57,29.69,29.69,0,0,1,8.37,5.21,56.94,56.94,0,0,1,9.69,11.22,81.06,81.06,0,0,1,6,10.48,3.33,3.33,0,0,1-1.88,1.4s-1.83-2.66-4.79-6.52A91.29,91.29,0,0,0,108.87,358.81Z"/><path class="cls-1" d="M137.52,347.44a34.47,34.47,0,0,0-5.88-7.11,36.49,36.49,0,0,0-5.95-4.37,49.9,49.9,0,0,0-4.43-2.33l-1.66-.77s.65,0,1.84.07a27.67,27.67,0,0,1,5.14.91,25.35,25.35,0,0,1,7.46,3.43,26,26,0,0,1,7.37,7.71,46.2,46.2,0,0,1,5.7,14.95,112.32,112.32,0,0,1,1.9,12.73,3.12,3.12,0,0,1-2.24.69s-.86-3.37-2.24-8.42S141.15,353.19,137.52,347.44Z"/><path class="cls-1" d="M138.34,365.92a37.68,37.68,0,0,0-9-1.8,23,23,0,0,0-3.86.12,9.24,9.24,0,0,1,3.42-2.38,15.76,15.76,0,0,1,10.8-.34,21.32,21.32,0,0,1,8.19,4.75,14,14,0,0,1,4.17,6.74,5.23,5.23,0,0,1-2.12,1,12.86,12.86,0,0,0-2.83-3.41A24.18,24.18,0,0,0,138.34,365.92Z"/><path class="cls-1" d="M216,363.86a40.75,40.75,0,0,0,5.51-9.47c1.06-2.61,1.58-4.32,1.6-4.31a15.87,15.87,0,0,1,.66,4.74,18.52,18.52,0,0,1-.82,5.48,20,20,0,0,1-3.3,6.36,35.88,35.88,0,0,1-7.88,7.29,69.48,69.48,0,0,1-7.35,4.47,4.61,4.61,0,0,1-1.48-1.81l4.35-3.83A67.52,67.52,0,0,0,216,363.86Z"/><path class="cls-1" d="M201.62,367.7a16.24,16.24,0,0,1,2.65-6.46,10.64,10.64,0,0,1,1.93-2.14s.18,1.1.28,2.79a27.47,27.47,0,0,1-.33,6.64c-.32,1.77-.79,3.8-1.33,5.67a29.13,29.13,0,0,1-1.7,4.67,8.2,8.2,0,0,1-2.28-.45l.1-3.3A53.16,53.16,0,0,1,201.62,367.7Z"/><path class="cls-1" d="M126.81,360.85a19.61,19.61,0,0,1,2.32-10.29,10.22,10.22,0,0,1,2.63-3.19,33,33,0,0,0-.43,3.86c-.13,2.37-.06,5.61.08,9.46a53.85,53.85,0,0,0,.86,8.09,27,27,0,0,0,2,6.35,5.74,5.74,0,0,1-1.82,1.45,17,17,0,0,1-2.91-4.42A29.35,29.35,0,0,1,126.81,360.85Z"/><path class="cls-1" d="M134.44,362.44l-4.65-5.84c-1.21-1.52-2-2.55-1.95-2.56a12.27,12.27,0,0,1,3.26.67,15,15,0,0,1,7,4.9,17.06,17.06,0,0,1,3.26,6.91,13.92,13.92,0,0,1-.07,6.28,6.41,6.41,0,0,1-2.33-.07,17.86,17.86,0,0,0-.73-3.52A21.49,21.49,0,0,0,134.44,362.44Z"/><path class="cls-1" d="M176.32,352.6a19.62,19.62,0,0,1,5.28-7.78,13.31,13.31,0,0,1,3.05-2.08s-.44,1.32-1.15,3.38-1.66,4.87-2.87,8.1a64.17,64.17,0,0,0-2.24,7,50,50,0,0,0-1.13,6,6.09,6.09,0,0,1-2.32.24,23.69,23.69,0,0,1-.46-4.61A29.1,29.1,0,0,1,176.32,352.6Z"/><path class="cls-1" d="M183.43,360.55a23.57,23.57,0,0,1,6.34-6.46,12.06,12.06,0,0,1,3.22-1.66l-1.49,3.18a64.4,64.4,0,0,1-4.23,7.48,70.91,70.91,0,0,0-3.75,6.11,15,15,0,0,0-1.18,2.82,4,4,0,0,0-.16,1.84c-.48.39-.92.79-1.28,1a2.15,2.15,0,0,1-.6.34,3.7,3.7,0,0,1-.79-1.44,8.18,8.18,0,0,1-.13-3.78A26.1,26.1,0,0,1,183.43,360.55Z"/><path class="cls-1" d="M188.24,366a54.32,54.32,0,0,1,5.6-2.85c1.51-.68,2.54-1.06,2.55-1.05a10,10,0,0,1-.93,2.69,12.68,12.68,0,0,1-4.89,5.18,19.5,19.5,0,0,1-5.81,2.22,16.56,16.56,0,0,1-5.12.29,7.6,7.6,0,0,1-.3-2.3s1.21-.37,2.91-1.09A50.92,50.92,0,0,0,188.24,366Z"/><text class="cls-2" transform="translate(377.09 296.87)"> <tspan class="cls-3" x="21.45" y="0">s</tspan><tspan class="cls-4" x="82.99" y="0">alman</tspan></text><text class="cls-5" transform="translate(393.92 203.11)">leena</text><text class="cls-6" transform="translate(0 384.57)">WEB DEVE<tspan class="cls-7" x="491.61" y="0">L</tspan><tspan x="545.74" y="0">OPER</tspan></text></svg>