<?xml version="1.0" encoding="utf-8"?>
<!-- Generator: Adobe Illustrator 25.2.3, SVG Export Plug-In . SVG Version: 6.00 Build 0)  -->
<svg version="1.1" id="Layer_1" xmlns="http://www.w3.org/2000/svg" xmlns:xlink="http://www.w3.org/1999/xlink" x="0px" y="0px"
	 viewBox="0 0 48 48" style="enable-background:new 0 0 48 48;" xml:space="preserve">
<style type="text/css">
	.st0{fill:#FFEE58;}
	.st1{fill:#FBC02D;}
	.st2{fill:#FFBCA7;}
	.st3{fill:#FFAD93;}
	.st4{fill:#FFDBD0;}
	.st5{fill:#F5E9E8;}
	.st6{fill:#0277BD;}
	.st7{fill:#212121;}
	.st8{fill:#113669;}
	.st9{fill:#B2B2BC;}
	.st10{fill:#6C6C76;}
	.st11{font-family:'ArialMT';}
	.st12{font-size:12px;}
</style>
<g>
	<polygon class="st0" points="41,36.1 36.8,37 37.6,41.2 33.3,40.3 32.5,45.5 27.4,42.9 24,48 20.6,42.9 15.5,45.5 14.6,40.3 
		10.4,41.2 11.2,37 7,36.1 10.4,32.7 7.8,28.4 40.2,28.4 37.6,32.7 	"/>
	<polygon class="st1" points="34.2,36.1 37.6,41.2 36.8,37 	"/>
	<polygon class="st1" points="35,33.5 41,36.1 37.6,32.7 	"/>
	<polygon class="st1" points="35.9,28.4 35,31.8 40.2,28.4 	"/>
	<polygon class="st1" points="13.8,36.1 10.4,41.2 11.2,37 	"/>
	<polygon class="st1" points="12.9,33.5 7,36.1 10.4,32.7 	"/>
	<polygon class="st1" points="12.1,28.4 12.9,31.8 7.8,28.4 	"/>
	<path class="st2" d="M35.1,25.9h1.7c0.9,0,1.7-0.8,1.7-1.7l0,0c-0.1-1.7-0.4-3.4-1-5c-0.3-0.8-0.7-1.6-1.3-2.2
		c-0.3-0.3-0.7-0.4-1.1-0.5L35.1,25.9z"/>
	<path class="st3" d="M35.1,20.8c0,3.7,2.5,3.4,2.5,3.4s-0.8-0.4-0.8-3.4c0-1.7-1-1.7-1-1.7S35.1,19.1,35.1,20.8z"/>
	<path class="st2" d="M12.9,25.9h-1.7c-0.9,0-1.7-0.8-1.7-1.7l0,0c0.1-1.7,0.4-3.4,1-5c0.3-0.8,0.7-1.6,1.3-2.2
		c0.3-0.3,0.7-0.4,1.1-0.5L12.9,25.9z"/>
	<path class="st3" d="M12.2,19.1c0,0-1,0-1,1.7c0,3-0.9,3.4-0.9,3.4s2.6,0.3,2.6-3.4C12.9,19.1,12.2,19.1,12.2,19.1z"/>
	<path class="st4" d="M24,31c-10.8,0-11.9-5.1-11.9-5.1v-5.1c0.1-2.8,1-5.4,2.6-7.7c0.5-0.7,4.3-6,9.4-6s8.9,5.3,9.3,6
		c1.6,2.2,2.5,4.9,2.6,7.7v5.1C35.9,25.9,34.8,31,24,31z"/>
	<path class="st5" d="M32.5,21.6c-0.7,0.6-1.6,0.9-2.5,0.9c-1.5-0.1-2.9-1.1-3.4-2.5l0.9-0.9h2.5c1.2-0.1,2.3,0.6,2.6,1.7L32.5,21.6
		z"/>
	<circle class="st6" cx="30" cy="20.8" r="1.7"/>
	<circle class="st7" cx="30" cy="20.8" r="0.9"/>
	<path class="st7" d="M26.5,19.9c0,0,0.9,1.7,6,1.7l0,0c-0.2,1-1.1,1.8-2.1,1.7c-1.9,0.2-3.6-1.2-3.8-3.1
		C26.6,20.1,26.6,20,26.5,19.9z"/>
	<polygon class="st1" points="33.3,25 27,21.6 25.7,21.6 29.1,25 	"/>
	<path class="st5" d="M15.5,21.6c0.7,0.6,1.6,0.9,2.5,0.9c1.5-0.1,2.9-1.1,3.4-2.5l-0.9-0.9h-2.5c-1.2-0.1-2.3,0.6-2.6,1.7
		L15.5,21.6z"/>
	<circle class="st6" cx="18" cy="20.8" r="1.7"/>
	<circle class="st7" cx="18" cy="20.8" r="0.9"/>
	<path class="st7" d="M21.5,19.9c0,0-0.9,1.7-5.9,1.7l0,0c0.2,1,1.1,1.8,2.1,1.7c1.9,0.2,3.6-1.2,3.8-3.1
		C21.4,20.1,21.4,20,21.5,19.9z"/>
	<polygon class="st1" points="14.6,25 21,21.6 22.3,21.6 18.9,25 	"/>
	<path class="st2" d="M18.9,17.4l-5.7-1.7c-0.2,0.5-0.5,1.1-0.6,1.7H18.9z"/>
	<path class="st2" d="M18,14.8l-2.9-2.3c-0.2,0.3-0.4,0.5-0.5,0.6c-0.2,0.3-0.4,0.6-0.6,0.9L18,14.8z"/>
	<path class="st2" d="M18.9,13.1l-1.3-3.2c-0.5,0.4-0.9,0.8-1.3,1.2L18.9,13.1z"/>
	<path class="st2" d="M35.4,17.4c-0.2-0.6-0.4-1.1-0.6-1.7l-5.7,1.7H35.4z"/>
	<polygon class="st2" points="32.9,12.5 30,14.8 33.9,14 	"/>
	<polygon class="st2" points="30.5,9.9 29.1,13.1 31.7,11.2 	"/>
	<rect x="21.5" y="11.4" class="st2" width="5.1" height="1.7"/>
	<path class="st2" d="M22.3,16.5h3.4c0,0-0.9-1.7-1.7-1.7S22.3,16.5,22.3,16.5z"/>
	<polygon class="st0" points="12.1,25 12.1,20.8 13.8,25 	"/>
	<polygon class="st0" points="35.9,25 35.9,20.8 34.2,25 	"/>
	<path class="st8" d="M32.5,31.8c-2,0.7-6.8,0.9-8.5,0.9s-6.5-0.2-8.5-0.9c-1.4-0.5-2.7-1.4-3.6-2.6c-0.4-0.5-0.6-1.1-0.6-1.7v-1.8
		c0-0.4,0.3-0.8,0.7-0.8c2-0.4,4.1-0.6,6.1-0.7h12c2.1,0.1,4.1,0.3,6.1,0.7c0.4,0.1,0.7,0.4,0.7,0.8v1.8c0,0.6-0.2,1.2-0.6,1.7
		C35.2,30.4,33.9,31.3,32.5,31.8z"/>
	<path class="st9" d="M24,31c-1.2,0-3.4-0.1-5.2-0.3c-0.4-0.1-0.8-0.4-0.8-0.9v-3.1c0-0.5,0.4-0.9,0.9-0.9l0,0h10.2
		c0.5,0,0.9,0.4,0.9,0.9l0,0v3.1c0,0.4-0.3,0.8-0.8,0.9C27.4,30.9,25.2,31,24,31z"/>
	<circle class="st10" cx="19.3" cy="27.2" r="0.4"/>
	<circle class="st10" cx="19.3" cy="29.7" r="0.4"/>
	<circle class="st10" cx="28.7" cy="27.2" r="0.4"/>
	<circle class="st10" cx="28.7" cy="29.7" r="0.4"/>
	<path class="st10" d="M26.2,29.8c-0.2,0.2-0.4,0.2-0.6,0l-0.3-0.3C25,29.8,24.5,30,24,30c-0.9,0-1.6-0.7-1.7-1.6l-0.8-1
		c-0.1-0.2-0.1-0.4,0.1-0.6c0.1-0.1,0.2-0.1,0.2-0.1h2c0.5-0.1,1.1,0.3,1.2,0.8c0,0.1,0,0.1,0,0.2c0,0.4-0.2,0.7-0.6,0.7
		c0,0,0,0,0,0c-0.2,0-0.4-0.2-0.4-0.4c0,0,0,0,0,0c0-0.1,0-0.1,0-0.2l0,0c0,0,0-0.1,0.1-0.1l0,0c-0.1-0.1-0.2-0.1-0.3-0.1
		c-0.4,0-0.7,0.2-0.7,0.6c0,0,0,0.1,0,0.1c0,0.5,0.4,0.9,0.9,0.9l0,0c0.4,0,0.7-0.2,0.9-0.5c0.1-0.1,0.2-0.2,0.3-0.2
		c0.1,0,0.3,0,0.4,0.1l0.6,0.6C26.3,29.4,26.3,29.6,26.2,29.8z"/>
</g>
<text transform="matrix(-1 0 0 -1 34.791 3.8965)" class="st11 st12">404</text>
</svg>
