<svg id="Layer_1" data-name="Layer 1" xmlns="http://www.w3.org/2000/svg" viewBox="0 0 495.72 380.29"><defs><style>.cls-1{fill:#f39200;}</style></defs><path class="cls-1" d="M307.15,167.7a146.1,146.1,0,0,1,8.41-15.32l.68.53c.25.2.77-.16,1.17-.78A118.33,118.33,0,0,1,333.29,132c.53-.53.81-1.13.63-1.34l-3.36-4c-.18-.21-.84,0-1.48.44a153.78,153.78,0,0,0-20.58,18c-.55.57-.78,1.2-.53,1.4l.68.53c-4.22,4.5-8.24,9.24-12,14.14-.49.63-.64,1.29-.34,1.47l.81.49q-5.58,7.38-10.61,15.2c-.43.66-.5,1.34-.16,1.51l.92.45q-4.94,7.8-9.39,15.93c-.38.69-.38,1.37,0,1.53l1,.41q-4.37,8.1-8.36,16.45c-.35.71-.28,1.4.13,1.54l1.13.37q-3.9,8.33-7.5,16.85c-.31.73-.19,1.42.27,1.54l1.21.33q-3.5,8.49-6.75,17.15c-.27.73-.11,1.42.38,1.53l1.31.29q-3.17,8.63-6.11,17.38c-.25.75,0,1.43.48,1.52l1.4.25q-2.87,8.73-5.54,17.58c-.24.75,0,1.43.58,1.5l1.48.21q-2.59,8.82-5,17.75c-.21.76.1,1.42.68,1.49l1.57.16q-2.35,8.89-4.56,17.9c-.19.77.16,1.42.78,1.47l1.65.11q-2.13,9-4.09,18.05c-.16.78.23,1.43.87,1.45l1.73.07c-1.25,6-2.45,12.1-3.56,18.23a1.08,1.08,0,0,0,1,1.42h22a1,1,0,0,0,1-1.34q-1.62-8.75-2.81-17.64l1.74.07a1,1,0,0,0,1-1.32q-1.23-8.85-2.06-17.78l1.66.12c.61,0,1.05-.54,1-1.29q-.87-8.9-1.34-17.85l1.57.17c.58.06,1-.5,1-1.26q-.51-8.92-.62-17.87l1.49.21c.55.08,1-.48,1-1.24q-.13-8.91.14-17.85l1.4.25c.52.1.95-.44,1-1.2q.24-8.9,1-17.79l1.31.29c.49.1.93-.42,1-1.18q.68-8.85,1.85-17.68l1.22.33c.45.12.9-.39,1-1.13q1.15-8.79,2.85-17.51l1.12.37c.42.13.87-.36,1-1.09,1.12-5.79,2.43-11.54,4-17.24l1,.41c.38.16.85-.31,1-1q2.26-8.5,5.25-16.83l.91.45c.35.17.83-.27,1.08-1,2-5.5,4.2-10.92,6.72-16.22l.8.5C306.33,168.77,306.83,168.37,307.15,167.7Z"/><path class="cls-1" d="M209.39,160.74c-.32-6.2-.51-12.45-.69-18.72l.86,0c.32,0,.56-.61.54-1.41-.32-9.25-.6-18.55-1.28-27.85-.06-.81-.33-1.46-.61-1.46H203c-.28,0-.56.64-.62,1.42-.78,9.07-2.1,18.1-3.57,27.17-.13.79,0,1.44.35,1.46l.86.06-3,18.63c-.12.8.06,1.46.41,1.48l.94.05c-.92,6.25-1.8,12.54-2.52,18.9-.1.81.14,1.48.52,1.48h1c-.66,6.33-1.18,12.73-1.48,19.19,0,.82.26,1.47.67,1.44l1.1-.08q-.36,9.62,0,19.37c0,.84.41,1.45.84,1.38l1.17-.19c.29,6.44.82,12.92,1.59,19.39.1.83.56,1.4,1,1.29l1.22-.31c.84,6.4,1.91,12.82,3.22,19.21.16.82.69,1.34,1.16,1.18l1.26-.45c1.35,6.33,2.93,12.63,4.7,18.9.22.81.8,1.28,1.28,1.07l1.3-.58q1.35,4.65,2.86,9.28l3,9.13c.25.76.85,1.17,1.35.92l1.34-.67c2,5.94,3.83,11.77,5.2,17.53.17.74.75,1.15,1.29.93l1.46-.6a112.7,112.7,0,0,1,2.77,17.44c.06.73.59,1.21,1.18,1.07l1.61-.4a122.9,122.9,0,0,1,.06,17.69c0,.75.43,1.3,1.07,1.23l1.72-.18A162,162,0,0,1,239.08,374a1.05,1.05,0,0,0,1,1.37h22c.67,0,1.11-.68,1-1.52-1.14-6.57-2.53-13.1-4.23-19.53l1.72-.18c.64-.07,1-.8.75-1.63a167.64,167.64,0,0,0-6.53-19.13l1.61-.4c.6-.15.81-.92.47-1.73a155.11,155.11,0,0,0-9.15-18l1.46-.6c.55-.22.63-1,.18-1.73-3.48-5.74-7.18-11.11-10.82-16.29l1.34-.67c.5-.26.52-1,.06-1.66-1.83-2.57-3.63-5.1-5.34-7.62s-3.41-5.09-5-7.69l1.3-.57c.48-.22.53-.92.12-1.58q-4.84-7.74-9-15.91l1.26-.44c.47-.17.56-.86.21-1.55q-4.15-8.1-7.54-16.63L217,240c.45-.12.58-.79.3-1.51q-3.36-8.44-5.9-17.27l1.17-.19c.43-.07.6-.73.39-1.47-1.68-5.83-3.08-11.78-4.21-17.81l1.1-.08c.41,0,.62-.67.48-1.44-1.13-6-2-12.08-2.64-18.22h1c.38,0,.61-.63.53-1.41-.65-6.12-1.09-12.3-1.39-18.51l.94,0C209.18,162.16,209.43,161.54,209.39,160.74Z"/><path class="cls-1" d="M292.92,74.74c.4.16.3-1.49.13-3.15s-.39-3.33.05-3.17a53.88,53.88,0,0,1,12.24,6.24,13.22,13.22,0,0,1,3.18,3.8A22.17,22.17,0,0,1,309.83,81l.61,1.3c.2.45.4.89.59,1.34,1.48,3.52,1.94,6.47,2.21,6.08,1.37-2.07,1.07-4.8.43-6.82s-1.49-3.31-.68-2.67a47.61,47.61,0,0,1,7.27,7.37,44.91,44.91,0,0,1,4.87,7.66c.36.69.54,3.23.47,5.65a48,48,0,0,0-.13,5.35c.22.76.89-.16,1.54-1.12s1.27-2,1.49-1.22A63.23,63.23,0,0,1,330.56,115c.31,3.09.39,5.61.4,7.63a50.54,50.54,0,0,1-.24,6s-2.7-2.1-7.09-7.79c-2.21-2.8-4.82-6.51-8-10.55a66.85,66.85,0,0,0-5.36-6,42.57,42.57,0,0,0-6.79-5.46c-.52-.33,2.2-.53,5.09-.19s5.85,1.17,5.34.62a11.62,11.62,0,0,0-3-1.55,31.55,31.55,0,0,0-5.65-1.59c-1-.19-2-.33-3-.43s-1.87-.19-2.76-.34a20.06,20.06,0,0,1-3.25-.53c-1.68-.85-3.37-1.65-5-2.39-.7-.3,2.45-.91,5.81-1.15,1.67-.14,3.38-.21,4.58-.28s1.92-.16,1.55-.4a42.55,42.55,0,0,0-9.52-1.08c-4.47-.14-8.64.4-9,.27l-1.52-.53c-2.36-.81-4.64-1.47-6.82-2-.76-.18,1.53-1.54,4.12-2.66s5.38-2,4.6-2.34-4.87.08-8.73,1.07-7.31,2.44-7.86,2.36a81.48,81.48,0,0,0-9.77-.84c-.67,0,.06-1.21.9-2.38s1.79-2.32,1.11-2.39-2.73,1-4.7,2.24-3.8,2.61-4.3,2.64c-2.25.12-4.35.3-6.29.51-.6.07.27-1.37,1.29-2.79s2.17-2.81,1.61-2.8c-.91,0-3.5,1.44-5.83,3.1s-4.44,3.45-5.1,3.55c-3.86.58-6,.82-6,.8a26.18,26.18,0,0,1,3.06-5.25c.3-.41,3.16-1.6,6.1-2.49s5.95-1.55,6.43-2c.3-.26-1.95-.33-4.26-.23s-4.62.36-4.29,0a43.09,43.09,0,0,1,8-6.22c.54-.34,4.47-.3,8.21.25s7.31,1.49,7.91,1.32-1.62-1.58-4.09-2.79-5.11-2.21-4.37-2.49c1.09-.42,2.24-.8,3.44-1.15.66-.22,5.35.76,9.39,2.27s7.49,3.33,7.29,2.82c-.79-2-3.22-3.75-5.42-4.9s-4.07-1.72-3.43-1.81a55.17,55.17,0,0,1,18.65.91c1.08.24,3,2.27,4.73,4.39S291.94,74.34,292.92,74.74Z"/><path class="cls-1" d="M393.06,136.64c-.37-.18-.4,1.46-.49,3.09s-.22,3.25-.56,3.07a97.49,97.49,0,0,0-9.55-4.36,6.75,6.75,0,0,1-1.41-.87c-.42-.37-.95-.81-1.6-1.31-1.25-1-2.65-2.14-4-3.18-2.73-2.06-5.28-3.67-5.16-3.22.57,2.41,2.41,4.15,3.76,5.38s2.33,1.86,1.6,1.76a89,89,0,0,0-15.53-.23,31.47,31.47,0,0,1-5.18-1.52,26.63,26.63,0,0,0-5.28-1.43c-1.69.13,3.18,3.38,1.64,3.47a119.79,119.79,0,0,1-12.1.16,54.13,54.13,0,0,1-8.59-1,27.21,27.21,0,0,1-6.41-2s.82-.42,2.51-1.21,4.23-1.95,7.67-3.59,7.77-3.8,13.53-6.31c2.89-1.25,6.16-2.58,10-3.82a69.94,69.94,0,0,1,13.35-3c1-.12-2.35,1.83-5.24,4.05s-5.5,4.58-4.62,4.35,5.34-3,10.56-5.22a53,53,0,0,1,7.67-2.56c1.15-.28,2.18-.47,3-.59a8.15,8.15,0,0,1,1.81-.11,48.14,48.14,0,0,1,8.9,2c1.16.41-3.43.63-7.76,1.69-.54.13-1.07.27-1.6.42a15.56,15.56,0,0,0-1.53.46c-.94.32-1.74.65-2.4,1-1.31.6-2,1-1.44,1.07.32,0,1.78-.39,4-.81a50.14,50.14,0,0,1,8.31-.72,63.11,63.11,0,0,1,8.35.56,24.15,24.15,0,0,1,4.17.77c.7.37,1.4.76,2.07,1.14,3.17,1.8,5.92,3.6,8.41,5.24.86.58-2.32.67-5.66.68s-6.72.09-5.86.66c.7.44,5.64,1.51,10.32,2.46,2.34.47,4.61.85,6.33,1.1.83.11,1.64.25,2.21.37a3.67,3.67,0,0,1,1.06.27c3.46,2.2,6.75,4,9.9,5.63.7.35-.64,1-2.07,1.66s-2.91,1.19-2.25,1.58,3.24.44,5.88.33,5.23-.39,5.75-.17c2.39,1,4.63,1.95,6.69,2.77.65.26-1.06,1-2.85,1.74s-3.64,1.34-3.09,1.62c.9.46,4.2.49,7.41.3s6.33-.52,7-.23c4,1.67,6,2.77,6,2.78a39,39,0,0,1-6,2.55c-.52.18-3.81-.42-7.09-1.2s-6.53-1.71-7.2-1.6c-.43.07,1.73,1.27,4,2.35s4.51,2.09,4,2.2a58.88,58.88,0,0,1-10.75,1.32c-.67,0-4.36-1.92-7.75-4.2s-6.49-4.81-7.16-5,.9,2.19,2.76,4.44,3.91,4.39,3.06,4.29c-1.24-.15-2.52-.36-3.83-.61-.74-.12-4.81-3.18-8.12-6.43-.83-.8-1.63-1.61-2.35-2.36l-1.87-2c-1.08-1.13-1.74-1.79-1.74-1.51a8.17,8.17,0,0,0,1,3.48c.32.61.64,1.18,1,1.75s.8,1.12,1.2,1.63c1.63,2.05,3.2,3.43,2.55,3.21-1.44-.48-2.89-1-4.36-1.66l-2.11-.92c-.74-.33-1.46-.67-2.19-1-2.88-1.41-5.69-3-8.42-4.54-.89-.52-2-2.9-3.07-5.24S394,137.09,393.06,136.64Z"/><path class="cls-1" d="M373.07,101.54c-.29.14.85,1.24,2,2.36s2.21,2.26,1.93,2.38c-2.77,1.24-5.46,2.74-8.33,3.77-1.73.61-5.1.06-8.06-.4s-5.48-.9-5.18-.57a10.73,10.73,0,0,0,5.43,3c1.6.41,2.64.45,2.07.73-4,2-7.58,3.87-10.76,5.63a22.3,22.3,0,0,1-4.25.33,15.41,15.41,0,0,0-4.27.54c-.52.34.5.74,1.51,1.14s2,.83,1.55,1.1c-5.47,3.2-9.56,5.88-12.38,7.69s-4.35,2.74-4.35,2.72a13.61,13.61,0,0,1-.05-2.26,29.62,29.62,0,0,1,1.24-6.92,44.35,44.35,0,0,1,5.29-11.35,64,64,0,0,1,12.4-14c.56-.47-.41,2.4-1.18,5.28s-1.35,5.74-.85,5.26,2.14-4.35,4.18-8.13,4.37-7.46,5-7.89q2.43-1.68,5-3.16c.69-.41-.88,2.55-2.24,5.55s-2.55,6-1.92,5.59c.37-.25,2.58-3.92,5.13-7.48a55.57,55.57,0,0,1,5.76-7.22l1.63-.74c.34-.16.68-.3,1-.44l.87-.36,1.73-.69c1.15-.45,2.32-.87,3.46-1.27.8-.28-.61,2.15-1.9,4.58-.65,1.22-1.28,2.43-1.66,3.31s-.57,1.47-.19,1.33a10.46,10.46,0,0,0,2.15-2L378.52,85c2.72-2.84,5.72-5.6,6.35-5.74a59.51,59.51,0,0,1,10.85-1.45c.75,0-.08,1.2-.85,2.45s-1.5,2.52-.85,2.5,2.47-1.3,4.56-2.47,4.34-2.22,4.89-2.13a32.13,32.13,0,0,1,6.72,1.62c.62.23-1,1.05-2.42,2s-2.72,2-2.24,2.13c.78.25,3.29-.35,6-.5a18.79,18.79,0,0,1,3.8.11,4.87,4.87,0,0,1,2.18.66A11.63,11.63,0,0,1,420,87.75a7.83,7.83,0,0,1,.45,1.31,19.93,19.93,0,0,0-4.82.15,5.2,5.2,0,0,1-1.44-.64,21.24,21.24,0,0,0-2.9-1.23c-2.21-.76-4.71-1.12-5.16-.87-.29.15,1.45.87,3,1.76s2.76,1.94,2.46,2a62.4,62.4,0,0,0-6.1,2.51c-.35.16-2.79-.88-5.56-1.6s-5.7-1.24-6.13-1,1.61,1.27,3.54,2.38,3.69,2.33,3.23,2.55l-2.07,1c-.38.18-3.54-.65-6.75-1.16s-6.31-.84-6-.46a13,13,0,0,0,5.41,2.86c1.77.56,3.07.85,2.7,1-3.27,1.61-6.91,3.39-11.09,5.29a3.48,3.48,0,0,1-1.9-.18c-.43-.11-.92-.26-1.43-.42s-1.07-.32-1.53-.52a19.26,19.26,0,0,0-2.88-.94A3.61,3.61,0,0,0,373.07,101.54Z"/><path class="cls-1" d="M274.12,125.54c.65-.35-5-4.06-4.38-4.4a54.79,54.79,0,0,1,10.75-4.78c2.41-.69,6.65.12,9.93,1.37s5.62,2.77,5.49,2.32a8,8,0,0,0-4.54-4.77c-1.78-.86-3.16-1.08-2.26-1.25a43.82,43.82,0,0,1,9.28-.71,40.88,40.88,0,0,1,4.27.37,32.86,32.86,0,0,1,3.74.72,17.92,17.92,0,0,1,4,3,31.29,31.29,0,0,0,3.72,3.12c.67.24.36-.83,0-1.9s-.74-2.15-.1-1.91a41.63,41.63,0,0,1,9.48,4.81,21.76,21.76,0,0,1,5.55,5.34,11,11,0,0,1,1.83,4.08,6.61,6.61,0,0,1,.14,1.41,17,17,0,0,0-2.05-.9,21.09,21.09,0,0,0-6.17-1,86.83,86.83,0,0,0-10.91.48c-2.29.2-4.77.47-7.63.77a39.28,39.28,0,0,0-7.34,1.7c-.5.17.83-2,2.64-4s4-3.77,3.37-3.72a9.74,9.74,0,0,0-2.72,1.34,28.37,28.37,0,0,0-4.18,3.26c-2.74,2.52-4.84,5.45-5.39,5.72-1.4.68-2.83,1.43-4.29,2.23-.6.33.65-2.43,2.13-5.08s3.27-5.2,2.59-5a12.2,12.2,0,0,0-2.08,2c-1.06,1.17-2.33,2.75-3.53,4.39-2.39,3.26-4.67,6.76-5.07,7l-1.44.8c-2.27,1.25-4.56,2.46-6.86,3.57-.79.38.42-2.24,1.52-4.85s2.18-5.2,1.47-4.88-3,3.48-5.52,6.7-4.91,6.32-5.46,6.55c-3.44,1.39-6.54,2.53-9.36,3.53-.62.23-.38-1.14-.08-2.52s.64-2.79,0-2.6-2,1.89-3.29,3.66-2.52,3.53-3,3.67L243,157.11c-.51.19-.18-1.33.29-2.88s1-3.11.53-3c-.79.21-2.62,2.12-4.17,4.13s-2.89,4-3.44,4.27c-3.26,1.27-5.09,2-5.1,2a20.09,20.09,0,0,1,1.07-5.45c.14-.46,2.37-2.13,4.72-3.55s4.76-2.67,5-3.15c.18-.3-1.81.12-3.8.69s-4,1.26-3.8.89a43.28,43.28,0,0,1,5-7.44c.35-.44,3.67-1.23,6.92-1.75s6.45-.89,6.85-1.27-2-.82-4.38-1.17-4.9-.61-4.42-1.06q1.06-1,2.22-2c.43-.38,4.36-.85,8-1.11s6.93-.46,6.52-.79c-1.63-1.24-4.17-1.64-6.23-1.77s-3.63,0-3.23-.3c3.58-2.63,7.6-5.16,11.8-7.66C264.72,123.93,272.51,126.38,274.12,125.54Z"/><path class="cls-1" d="M347.93,165.92c-.05-.23-1.4.52-2.77,1.22s-2.75,1.36-2.79,1.15c-.4-2.07-1.11-4.12-1.37-6.34-.14-1.32,1.19-3.91,2.28-6.31s2-4.5,1.64-4.25a12.8,12.8,0,0,0-4,4.41c-.74,1.28-1,2.1-1.15,1.65-.93-3.2-1.89-6.13-2.81-8.81a18.82,18.82,0,0,1,.6-3.65,12.48,12.48,0,0,0,.4-3.72c-.2-.46-.77.44-1.34,1.33s-1.17,1.76-1.31,1.36c-1.72-4.77-3.16-8.54-4.09-11.18a42.72,42.72,0,0,1-1.32-4.12,10.76,10.76,0,0,1,1.93.05,24.15,24.15,0,0,1,5.7,1.34,35,35,0,0,1,9,4.9,46,46,0,0,1,10.64,11.22c.35.51-2.21-.48-4.76-1.23s-5.1-1.29-4.74-.86,3.61,1.92,6.79,3.85,6.26,4.25,6.55,4.86a50.64,50.64,0,0,1,2,4.66c.24.65-2.28-1.1-4.86-2.52s-5.21-2.59-4.94-2c.15.32,3.19,2.39,6.06,5s5.54,5.57,5.62,6,.22,1,.31,1.51a44.11,44.11,0,0,1,.73,6.9c0,.77-1.85-1.13-3.83-2.78s-4-3.1-4-2.46,2.16,3.16,4,6.2,3.36,6.42,3.25,7a37,37,0,0,1-2.79,9.13c-.27.58-1.07-.53-1.92-1.58s-1.73-2.06-2-1.57.24,2.32.51,4.32.4,4,.13,4.41a28.55,28.55,0,0,1-3.61,4.12c-.37.35-.72-1.1-1.15-2.49s-.92-2.74-1.22-2.45c-.49.46-.82,2.51-1.32,4.53s-1.14,4-1.62,4.24a16.28,16.28,0,0,1-4.32,1.65s-.16-1.61-.27-4.35c0-.35,1.37-1.64,2.65-3.12s2.45-3.11,2.38-3.55c-.05-.26-1.3.7-2.59,1.52s-2.59,1.52-2.61,1.23c-.08-1.73-.19-3.66-.35-5.75,0-.33,1.79-1.63,3.48-3.25s3.28-3.5,3.19-3.89-1.77.71-3.51,1.61-3.5,1.62-3.53,1.23l-.18-1.72c0-.31,1.89-2,3.52-4.06s3-4.16,2.52-4a14.43,14.43,0,0,0-4.56,2.95c-1.15,1-1.88,1.73-1.92,1.45-.33-2.55-.72-5.27-1.23-8.26-.08-.48,1.25-1.72,2.5-3.11S348.07,166.5,347.93,165.92Z"/><path class="cls-1" d="M135.83,89.18c.47-.12-.71-1.35-1.94-2.55s-2.5-2.36-2-2.51A66.38,66.38,0,0,1,147,81.25a16.34,16.34,0,0,1,5.41.94c1,.32,2,.7,3,1.12s2,.86,2.87,1.32c3.65,1.82,6.21,3.76,6.15,3.29-.34-2.47-2.51-4.37-4.41-5.53s-3.44-1.65-2.35-1.65a63,63,0,0,1,20.68,3.54c.82.28,3,2.09,4.86,4s3.54,4,4.17,4.38c.79.49.63-.68.4-1.88s-.52-2.4.26-1.92a44.77,44.77,0,0,1,10.41,8.77,38.63,38.63,0,0,1,5.16,7.58,31,31,0,0,1,2,4.84,16,16,0,0,1,.46,1.64s-.85-.42-2.54-1.33-4.23-2.29-7.7-3.84a63.72,63.72,0,0,0-33.27-5.35c-.78.08,1.77-1.81,4.64-3.41s6-2.94,5.13-3a15.6,15.6,0,0,0-3.81.81A51.13,51.13,0,0,0,162.06,98c-1.11.5-2.19,1-3.2,1.54L156.05,101a23.62,23.62,0,0,1-3.4,1.65c-2.19.42-4.36.87-6.49,1.39-.88.22,1.73-2.29,4.69-4.62S157,94.93,156,95c-.58,0-5.34,2.42-9.59,5.22s-8,5.91-8.47,6.06l-1.84.59c-2.84.94-5.51,1.94-8,3-.87.36.57-2.28,2.36-4.86s3.85-5.1,2.9-4.86c-.78.2-4.56,3.24-7.72,6.59s-5.77,6.92-6.37,7.24A118.35,118.35,0,0,0,109,120c-.68.44-.56-1.09-.34-2.67s.52-3.18-.17-2.79-2.12,2.66-3.44,5.07-2.46,4.83-2.93,5.19c-2.16,1.59-4.12,3.12-5.9,4.53-.56.44-.35-1.46,0-3.4s.76-3.91.23-3.56c-.88.57-2.66,3.48-4.14,6.43s-2.75,5.93-3.34,6.42c-3.43,2.81-5.35,4.21-5.36,4.2a34,34,0,0,1,.68-6.75c.11-.57,2.29-3.3,4.66-5.86s4.91-5,5.17-5.63c.17-.42-2,.9-4.12,2.35s-4.17,3-4,2.53a58.3,58.3,0,0,1,4.52-10.29c.34-.61,4-2.9,7.75-4.74s7.61-3.32,8.09-3.85-2.39-.28-5.32.23-5.87,1.24-5.34.54c.79-1,1.64-2,2.54-3.06.49-.58,5.29-2.63,9.86-3.94s8.86-2.08,8.38-2.35c-1.91-1.09-5.18-1-7.84-.55s-4.68,1.12-4.15.66a69.54,69.54,0,0,1,17.43-11c1.12-.5,4.13-.12,7,.45S134.67,89.5,135.83,89.18Z"/><path class="cls-1" d="M143.41,138.9c.35-.27-1.17-1-2.74-1.6s-3.17-1.2-2.79-1.52a64.78,64.78,0,0,1,5.76-4.43c1-.68,2-1.32,3-1.84s2-1.08,3-1.55c2.48-1.14,6.87-1.06,10.44-.62s6.39,1.1,6.14.72c-1.39-2.06-3.83-2.94-5.76-3.34s-3.3-.35-2.47-.71a136.11,136.11,0,0,1,15.88-5.4c1.3-.36,9,1.39,10.22,1,1.47-.39-3.59-2.77-2.23-3.1,8-1.87,13.76-3,17.71-3.79s6-1.06,6-1a21.9,21.9,0,0,1-1.32,2.26,43.37,43.37,0,0,1-5.23,6.35,81.23,81.23,0,0,1-11,9.27c-4.76,3.42-10.67,7-17.26,11.08-.65.41.8-2.36,2.4-5.14s3.26-5.55,2.54-5.16-3.87,4-6.75,7.61-5.38,7.27-6,7.7l-2.42,1.67L158,149.08c-.3.22-.22-.4.23-1.54s1.06-2.65,1.81-4.2c1.47-3.1,3.25-6.2,2.49-5.77a50.11,50.11,0,0,0-5.8,7.93,80.15,80.15,0,0,0-4.1,7.92c-.39.34-.77.7-1.14,1.05a60.17,60.17,0,0,0-4.71,5c-.48.59-.75-2-.6-4.81s.65-5.66,0-5.14-2.18,4.35-2.94,8.22-.9,7.64-1.21,8.12a90.12,90.12,0,0,0-5,8.8c-.32.64-1-.6-1.73-1.9s-1.31-2.69-1.67-2.09-.29,3-.09,5.4.53,4.8.31,5.28c-1,2.19-1.87,4.24-2.68,6.11-.26.59-1-1-1.76-2.63s-1.39-3.35-1.66-2.85c-.44.82-.43,3.84-.24,6.77s.53,5.79.23,6.43a60.45,60.45,0,0,1-2.78,5.49,31.38,31.38,0,0,1-2.54-5.55c-.18-.47.43-3.49,1.19-6.47s1.67-5.95,1.55-6.57c-.08-.39-1.23,1.57-2.31,3.59s-2.07,4.1-2.18,3.65a56.42,56.42,0,0,1-1.42-9.83c0-.62,1.83-4,4-7.07s4.52-6,4.62-6.58-2.12.81-4.28,2.52-4.21,3.58-4.14,2.8c.11-1.15.25-2.33.46-3.54.09-.67,3-4.46,6-7.54s6.25-5.5,5.7-5.53c-2.14-.11-4.81,1.39-6.79,2.93s-3.29,3-3.1,2.38A51.88,51.88,0,0,1,130.86,143c.72-.91,3.5-1.82,6.24-2.42S142.55,139.58,143.41,138.9Z"/><path class="cls-1" d="M232.23,129.13c-.1-.14-1.11,1-2.14,2.11s-2.08,2.2-2.17,2.07a26,26,0,0,1-2.67-4.05c-.38-.9.31-3.37.79-5.65s.84-4.34.58-4a18.49,18.49,0,0,0-2.47,5.17c-.4,1.28-.52,2-.69,1.74-1.26-1.88-2.35-3.47-3.36-4.88a28.23,28.23,0,0,1-.24-3,8.43,8.43,0,0,0-.66-3c-.27-.22-.35.81-.48,1.82s-.3,2-.46,1.82a24.65,24.65,0,0,0-3-3.14,24,24,0,0,0-3-2.16c-1.85-1.11-3.07-1.7-3.05-1.72a6.86,6.86,0,0,1,.85-1.42,11.82,11.82,0,0,1,3.84-3.28,17.11,17.11,0,0,1,9.07-1.9,27,27,0,0,1,12.84,4.28c.44.27-2,.55-4.41,1.1s-4.58,1.35-4.17,1.52,3.49-.19,6.71,0,6.46.7,6.85,1c1,.87,1.95,1.77,2.84,2.71.36.39-2.26.17-4.85.18s-5.11.24-4.75.56c.2.17,3.28.48,6.4,1.18a31.28,31.28,0,0,1,6.4,1.9l.65.92a38.22,38.22,0,0,1,2.55,4.28c.25.48-2,.15-4.18-.06s-4.41-.32-4.2.11,2.76,1.25,5.32,2.36,5.09,2.38,5.21,2.76a33.93,33.93,0,0,1,1.43,6.54c.05.45-1.14.3-2.34.17s-2.39-.24-2.37.16,1.26,1.2,2.48,2.11,2.42,1.87,2.41,2.19a29.69,29.69,0,0,1-.44,4.06c-.08.39-1.22-.09-2.37-.54s-2.31-.87-2.38-.54c-.12.52.81,1.78,1.71,3s1.75,2.59,1.58,3A14.59,14.59,0,0,1,250,154.1s-1.26-.63-3.21-1.88c-.24-.15-.15-1.64-.14-3.16s0-3.09-.35-3.27-.61,1.12-1.07,2.33-1,2.39-1.17,2.24c-1.18-.85-2.48-1.85-3.84-3-.21-.18.43-2,1-4s1-3.94.77-4.15-1.2,1.38-2.19,2.9-2,3-2.28,2.76l-1.05-1c-.19-.2.52-2.43,1.06-4.62s1-4.3.59-4c-2.74,2.66-3.46,6.66-3.81,6.28-1.45-1.63-2.91-3.44-4.35-5.42-.23-.31.55-1.83,1.26-3.4S232.51,129.5,232.23,129.13Z"/><path class="cls-1" d="M240.72,83.49c-.22.17,1.05,1.08,2.29,2s2.48,1.88,2.26,2A73.5,73.5,0,0,1,238.81,92c-1.4.76-4.54.59-7.32.44s-5.16-.32-4.8,0c3.85,3,8.5,2.1,7.62,2.75L232,96.83l-1.1.78-.9.62c-1.22.88-2.51,1.94-3.74,3a19.12,19.12,0,0,1-3.89.9,16.25,16.25,0,0,0-3.94,1c-.86.73,4.14,1.12,3.34,1.77a61.75,61.75,0,0,1-6.72,4.78,30,30,0,0,1-5.43,2.62,14.94,14.94,0,0,1-4.66,1s.73-2.62,2.12-7.47c.72-2.44,1.57-5.47,3-9.34a60.11,60.11,0,0,1,2.85-6.5c.62-1.2,1.34-2.47,2.2-3.8.39-.62,1-1.45,1.48-2.09s.95-1.26,1.46-1.89c.2-.25.24.32.23,1.3l-.05,1.72-.15,2.13c-.11,2.88.19,5.52.5,5a17.27,17.27,0,0,0,.67-2.83c.14-.73.39-1.66.62-2.55l.68-2.75c1-3.72,2.22-7.42,2.69-7.89q1.8-1.83,3.69-3.51c.53-.47-.17,2.51-.69,5.47s-.89,5.9-.42,5.44c.28-.27,1.41-3.93,2.84-7.57a47.16,47.16,0,0,1,3.42-7.52l1.24-.88a63.9,63.9,0,0,1,5.8-3.62c.66-.36-.12,2.15-.76,4.66s-1.17,5-.58,4.7,2.08-3.38,3.95-6.43,4-6.06,4.5-6.26a49.5,49.5,0,0,1,9.18-2.62c.64-.12.18,1.18-.24,2.48s-.79,2.62-.23,2.53,1.88-1.54,3.41-2.94,3.17-2.76,3.63-2.77a35.31,35.31,0,0,1,5.72.3c.54.07-.47,1.25-1.38,2.45s-1.77,2.44-1.34,2.5c.71.11,2.68-.93,4.75-1.8s4.19-1.61,4.72-1.38A16.05,16.05,0,0,1,278.73,62s-1.32,1.07-3.6,2.83c-.29.21-2.3-.07-4.42-.13s-4.3,0-4.63.37,1.43.58,3,1.07,3,1.07,2.78,1.26l-4.93,3.93c-.29.23-2.67-.34-5.22-.7s-5.19-.53-5.51-.23,1.65,1.06,3.54,1.92,3.67,1.8,3.32,2.08l-1.61,1.25c-.3.23-3.19-.22-6.07-.4s-5.64-.19-5.25.14a12.71,12.71,0,0,0,5.26,2.23c1.64.37,2.82.52,2.54.73-2.49,1.88-5.24,3.9-8.29,6.08-.5.35-2.4-.15-4.37-.58S241.27,83.09,240.72,83.49Z"/><path class="cls-1" d="M159.59,49.87c.48.17.18-1.53-.17-3.22s-.76-3.39-.25-3.21A65.91,65.91,0,0,1,173.75,50c2.74,1.72,5.65,5.93,7.52,9.63s2.88,6.83,3.1,6.41c1.18-2.19.53-5-.34-7.13s-1.83-3.43-.93-2.76A69.07,69.07,0,0,1,198,71.49c.51.73,1.24,3.5,1.69,6.23s.66,5.42.95,6.14c.37.89.91-.18,1.41-1.3s.94-2.3,1.31-1.44a43.38,43.38,0,0,1,3.47,13.73,34.13,34.13,0,0,1-.56,9.56,27.81,27.81,0,0,1-1.6,5.21c-.47,1.08-.77,1.58-.76,1.58s-.35-.91-1-2.75a65.74,65.74,0,0,0-3.49-8,55.15,55.15,0,0,0-8.27-11.72,74.79,74.79,0,0,0-16.22-13.14c-.7-.43,2.58-.34,5.94.14s6.76,1.32,6.07.71a16.82,16.82,0,0,0-3.66-1.69,57.14,57.14,0,0,0-6.82-2c-4.89-1.18-9.73-1.62-10.52-2-2-1-4.09-1.84-6.17-2.67-.87-.33,2.77-.87,6.58-1s7.73.06,6.88-.46c-.51-.32-5.83-1.28-11-1.47s-10.19.18-10.7,0l-1.91-.58c-3-.88-5.88-1.61-8.66-2.21-1-.2,1.83-1.53,4.88-2.61s6.27-1.94,5.31-2.29c-.78-.3-5.78,0-10.46.93s-9,2.33-9.7,2.25a93.28,93.28,0,0,0-12-.75c-.8,0,.12-1.22,1.17-2.42s2.23-2.36,1.42-2.42-3.31,1-5.69,2.39-4.51,2.86-5.07,2.93a64.79,64.79,0,0,0-7,1.24c-.66.17.23-1.45,1.38-3s2.51-3.12,1.86-3.06c-1.06.08-4.07,1.87-6.6,4s-4.62,4.58-5.31,4.88c-2,.83-3.59,1.58-4.64,2.09l-1.6.77a16.21,16.21,0,0,1,.41-1.71,26.73,26.73,0,0,1,2.07-4.93c.28-.55,3.38-2.71,6.75-4.24s6.85-2.57,7.42-3c.35-.3-2.28-.14-5,.36s-5.36,1.32-5,.9A40.11,40.11,0,0,1,105,46.82a11.88,11.88,0,0,1,3.45-.47,48.39,48.39,0,0,1,6.24.18c4.42.36,8.55,1.35,9.27,1.18s-1.88-1.59-4.73-2.75-5.92-2.09-5-2.41c1.3-.45,2.66-.86,4.06-1.24a15.57,15.57,0,0,1,4,.45,62.26,62.26,0,0,1,6.88,1.79c4.72,1.48,8.75,3.38,8.51,2.87-1-2-3.81-3.79-6.34-4.94s-4.67-1.74-3.93-1.83a71.86,71.86,0,0,1,21.24,1c1.23.23,3.56,2.27,5.69,4.42S158.43,49.45,159.59,49.87Z"/><path class="cls-1" d="M108.44,372.46c-8.47,1.37,19.84,7.84,50.52,4.37,40.53-4.58,59.13,1.67,59.13,1.67,119.12.93,157.54,4.44,159-3.34.65-3.42-5.67-9.75-40.13-22.57-38.95,16-67.41,15.21-86.42,11.35-15-3-44.07-12.46-69.19-9.42C140,359.53,149.33,366.87,108.44,372.46Z"/><path class="cls-1" d="M193.78,358.47a38.12,38.12,0,0,0-14-3.56,46.31,46.31,0,0,0-6,.1,19.47,19.47,0,0,1,5.73-2.39,23.48,23.48,0,0,1,7.17-.64,25,25,0,0,1,9,2.32,28.08,28.08,0,0,1,11,9.19,25.1,25.1,0,0,1,3.08,5.89,22.52,22.52,0,0,1,1.22,5.05,3.51,3.51,0,0,1-2.22.72,25.5,25.5,0,0,0-3.07-6.53,27.23,27.23,0,0,0-4.83-5.53A30.58,30.58,0,0,0,193.78,358.47Z"/><path class="cls-1" d="M203.11,351a23.64,23.64,0,0,1,1.13-7.76,22.62,22.62,0,0,1,2.63-5.44,19.67,19.67,0,0,1,3.41-4s-.58,1.86-1.3,4.91a48.17,48.17,0,0,0-1.26,12.19,49.07,49.07,0,0,0,1.45,10.59c.84,3.5,1.88,6.68,2.53,8.82a4.29,4.29,0,0,1-2,1.12,60.57,60.57,0,0,1-3-5.83A38.61,38.61,0,0,1,203.11,351Z"/><path class="cls-1" d="M192.49,350a48.92,48.92,0,0,0-7.06-5.2,28.27,28.27,0,0,0-6.22-2.79,25.34,25.34,0,0,0-4.5-.94c-1.09-.13-1.7-.15-1.7-.16a15.39,15.39,0,0,1,1.64-.56,17.28,17.28,0,0,1,4.9-.62,21.11,21.11,0,0,1,7.58,1.58,29.92,29.92,0,0,1,8.37,5.2,57.27,57.27,0,0,1,9.69,11.22,80.81,80.81,0,0,1,6,10.49,3.33,3.33,0,0,1-1.87,1.4s-1.84-2.66-4.8-6.52A91.23,91.23,0,0,0,192.49,350Z"/><path class="cls-1" d="M221.14,338.6a34.45,34.45,0,0,0-5.88-7.1,36.22,36.22,0,0,0-6-4.38c-1.82-1.07-3.36-1.82-4.43-2.33l-1.65-.77s.64,0,1.84.08a26.8,26.8,0,0,1,5.14.9,25.11,25.11,0,0,1,7.45,3.44,26.25,26.25,0,0,1,7.38,7.7,46.57,46.57,0,0,1,5.7,15,111.61,111.61,0,0,1,1.89,12.73,3.24,3.24,0,0,1-2.24.69s-.86-3.38-2.23-8.42S224.76,344.35,221.14,338.6Z"/><path class="cls-1" d="M222,357.08a37.28,37.28,0,0,0-9-1.79,21.83,21.83,0,0,0-3.87.12,9.09,9.09,0,0,1,3.42-2.38,15.78,15.78,0,0,1,10.81-.35,21.32,21.32,0,0,1,8.19,4.75,14.21,14.21,0,0,1,4.17,6.74,5.18,5.18,0,0,1-2.12,1,13.11,13.11,0,0,0-2.83-3.4A24.35,24.35,0,0,0,222,357.08Z"/><path class="cls-1" d="M299.56,355a40.42,40.42,0,0,0,5.51-9.48c1.06-2.61,1.59-4.32,1.61-4.31a16.56,16.56,0,0,1,.65,4.74,18.76,18.76,0,0,1-.81,5.48,20,20,0,0,1-3.31,6.37,35.44,35.44,0,0,1-7.88,7.29,70.88,70.88,0,0,1-7.34,4.46,4.55,4.55,0,0,1-1.48-1.8l4.34-3.84A66.18,66.18,0,0,0,299.56,355Z"/><path class="cls-1" d="M285.24,358.87a16.21,16.21,0,0,1,2.65-6.47,10.53,10.53,0,0,1,1.92-2.13,24.12,24.12,0,0,1,.29,2.78,28.54,28.54,0,0,1-.33,6.64c-.33,1.77-.79,3.81-1.33,5.68a30.36,30.36,0,0,1-1.7,4.66,7.69,7.69,0,0,1-2.28-.45l.09-3.29A53.21,53.21,0,0,1,285.24,358.87Z"/><path class="cls-1" d="M210.42,352a19.66,19.66,0,0,1,2.32-10.29,9.86,9.86,0,0,1,2.64-3.18,28.88,28.88,0,0,0-.44,3.85c-.13,2.37-.05,5.62.09,9.46a52.71,52.71,0,0,0,.86,8.1,27.4,27.4,0,0,0,2,6.34,5.74,5.74,0,0,1-1.82,1.46,17.58,17.58,0,0,1-2.9-4.42A29.4,29.4,0,0,1,210.42,352Z"/><path class="cls-1" d="M218.06,353.61l-4.65-5.84c-1.22-1.53-2-2.56-1.95-2.56a12,12,0,0,1,3.25.66,14.9,14.9,0,0,1,7,4.9,17.07,17.07,0,0,1,3.27,6.91,13.94,13.94,0,0,1-.08,6.29,6.5,6.5,0,0,1-2.32-.08,18,18,0,0,0-.73-3.52A21.54,21.54,0,0,0,218.06,353.61Z"/><path class="cls-1" d="M259.93,343.77a19.75,19.75,0,0,1,5.28-7.78,13.44,13.44,0,0,1,3.05-2.09s-.43,1.33-1.15,3.38-1.65,4.87-2.87,8.11a66.22,66.22,0,0,0-2.23,7,51.09,51.09,0,0,0-1.14,6,6,6,0,0,1-2.31.24,21.9,21.9,0,0,1-.46-4.61A29.21,29.21,0,0,1,259.93,343.77Z"/><path class="cls-1" d="M267,351.72a23.42,23.42,0,0,1,6.34-6.46,11.84,11.84,0,0,1,3.22-1.66l-1.48,3.17a62.45,62.45,0,0,1-4.24,7.48c-1.26,1.92-2.69,4.09-3.75,6.12a15.82,15.82,0,0,0-1.17,2.81,3.84,3.84,0,0,0-.16,1.84c-.49.4-.93.79-1.28,1a3.3,3.3,0,0,1-.61.34,4,4,0,0,1-.78-1.44,8.1,8.1,0,0,1-.13-3.79A26,26,0,0,1,267,351.72Z"/><path class="cls-1" d="M271.85,357.17a56.44,56.44,0,0,1,5.61-2.85c1.5-.67,2.54-1.05,2.54-1.05a9.5,9.5,0,0,1-.93,2.7,12.66,12.66,0,0,1-4.89,5.17,19.5,19.5,0,0,1-5.81,2.22,16.31,16.31,0,0,1-5.12.3,8,8,0,0,1-.3-2.31s1.21-.37,2.91-1.09A50.92,50.92,0,0,0,271.85,357.17Z"/></svg>